Coordinates
nRows=9
nColumns=38

# SIMM Motion File Header:
name Coordinates
datacolumns 38
datarows 9
otherdata 1
range 1.81699999999999990000 1.82500000000000000000

Units are S.I. units (second, meters, Newtons, ...)
Angles are in degrees.

endheader
time	pelvis_tilt	pelvis_list	pelvis_rotation	pelvis_tx	pelvis_ty	pelvis_tz	hip_flexion_r	hip_adduction_r	hip_rotation_r	knee_angle_r	ankle_angle_r	subtalar_angle_r	mtp_angle_r	hip_flexion_l	hip_adduction_l	hip_rotation_l	knee_angle_l	ankle_angle_l	subtalar_angle_l	mtp_angle_l	lumbar_extension	lumbar_bending	lumbar_rotation	arm_flex_r	arm_add_r	arm_rot_r	elbow_flex_r	pro_sup_r	wrist_flex_r	wrist_dev_r	arm_flex_l	arm_add_l	arm_rot_l	elbow_flex_l	pro_sup_l	wrist_flex_l	wrist_dev_l
      1.81699999999999990000	     -7.68092707022202510000	      4.92289316575787340000	      6.72697872924431640000	      0.79175370853530525000	      1.01453499485902790000	     -0.31433670544956477000	     -7.91026732121339740000	     -1.16562286440780640000	    -13.11948947712708200000	    -60.31821002931735600000	    -21.26329228269821700000	     -0.00000000000007723058	      0.00000000000009310524	     30.45277927947001500000	     11.28947067963656400000	      1.74970383680070650000	    -15.13334937823681000000	     -8.75975978580930280000	     -0.00000000000000313790	     -0.00000000000001148334	      0.23580588158267088000	     -3.76252090976281160000	      5.13902232887391630000	    -11.60604151767104000000	    -16.27132186512139700000	      3.62699695427012920000	    103.37113865455646000000	     79.85368782001950200000	      0.00000000000001823202	      0.00000000000000722196	    -44.69831206632019900000	    -39.13391500650843100000	     15.36122532312615400000	    111.63375341035730000000	     64.74147611185284700000	     -0.00000000000000012209	     -0.00000000000001753490
      1.81800000000000010000	     -7.57256199794507800000	      4.96201194694699500000	      6.75138082222146440000	      0.79171171539335472000	      1.01418742926945900000	     -0.31435776037046198000	     -7.84831385071614210000	     -1.26992984208379460000	    -13.20918957375408500000	    -60.93763541799234000000	    -21.08037188143955000000	     -0.00000000000007759746	      0.00000000000009351664	     30.23161968511514900000	     11.31825715939245000000	      1.63628210638589280000	    -14.95964998827728300000	     -8.85377851469268510000	     -0.00000000000000316159	     -0.00000000000001154067	      0.10229403246190326000	     -3.81399267184353570000	      5.07524819308768030000	    -11.66621155040288500000	    -16.26090619058713900000	      3.67245491653397990000	    103.21533055133769000000	     79.71392760947723800000	      0.00000000000001829332	      0.00000000000000726037	    -44.52040029559907500000	    -39.14935144700246600000	     15.41331550314973600000	    111.66154666970752000000	     64.75854470750634600000	     -0.00000000000000012845	     -0.00000000000001764113
      1.81900000000000000000	     -7.46410542918543210000	      5.00107242653032100000	      6.77436049887285560000	      0.79166480750547974000	      1.01382996649730810000	     -0.31437472117720172000	     -7.78397131519171110000	     -1.37466076057713190000	    -13.29499075124290800000	    -61.55833946834582800000	    -20.89586085528410200000	     -0.00000000000007796529	      0.00000000000009392743	     30.01605408887694500000	     11.34528510074270900000	      1.51464512159618910000	    -14.80577993819829500000	     -8.94502677219572820000	     -0.00000000000000318698	     -0.00000000000001159998	     -0.03169884278297505800	     -3.86549320434604840000	      5.01162962639729410000	    -11.72584326613445100000	    -16.25050730094161700000	      3.71876551704221470000	    103.05756387467086000000	     79.57030293743152100000	      0.00000000000001835447	      0.00000000000000729760	    -44.33899142977005400000	    -39.16553244789829300000	     15.46619962040071900000	    111.68797976601188000000	     64.77816817482025200000	     -0.00000000000000013518	     -0.00000000000001774761
      1.82000000000000010000	     -7.35554778332464830000	      5.04006142048341130000	      6.79595363010368200000	      0.79161307994332863000	      1.01346267368967970000	     -0.31438767863512090000	     -7.71725270075511820000	     -1.47975642150565020000	    -13.37697446388732200000	    -62.18020390499084000000	    -20.70993187555899000000	     -0.00000000000007833138	      0.00000000000009433755	     29.80596368707484700000	     11.37061151675507100000	      1.38525081278466210000	    -14.67155396225627200000	     -9.03314280430017470000	     -0.00000000000000321343	     -0.00000000000001165745	     -0.16616467431985227000	     -3.91701602475174450000	      4.94810672789176210000	    -11.78487092701619000000	    -16.24015079301967600000	      3.76593548071784930000	    102.89784401730400000000	     79.42311911934983500000	      0.00000000000001841488	      0.00000000000000733548	    -44.15420348033846000000	    -39.18240282474091200000	     15.51982489312535500000	    111.71308179810855000000	     64.80044163769295600000	     -0.00000000000000014158	     -0.00000000000001785411
      1.82100000000000000000	     -7.24687688799823080000	      5.07896340110072760000	      6.81619691552635400000	      0.79155663407996057000	      1.01308561537406570000	     -0.31439673289414793000	     -7.64817217676128980000	     -1.58515646705233680000	    -13.45522937504319900000	    -62.80311282888843700000	    -20.52275561589858900000	     -0.00000000000007869858	      0.00000000000009474773	     29.60121784445094300000	     11.39429210171436000000	      1.24859533507165300000	    -14.55677280738308700000	     -9.11766681818606270000	     -0.00000000000000323996	     -0.00000000000001171562	     -0.30109787925318682000	     -3.96855036413782920000	      4.88461838472940450000	    -11.84322938468565700000	    -16.22986509059676100000	      3.81397273723148310000	    102.73617850151636000000	     79.27268215391434600000	      0.00000000000001847511	      0.00000000000000737541	    -43.96615809685869900000	    -39.19990623824912000000	     15.57414008972411400000	    111.73688805485384000000	     64.82544978517205400000	     -0.00000000000000014856	     -0.00000000000001796096
      1.82200000000000010000	     -7.13808273784264010000	      5.11776398103102090000	      6.83513264125195440000	      0.79149556811273103000	      1.01269885398159440000	     -0.31440199717958817000	     -7.57674010662889060000	     -1.69080341916888030000	    -13.52985553891548800000	    -63.42695424432339000000	    -20.33449973968013000000	     -0.00000000000007906508	      0.00000000000009515542	     29.40168429449412100000	     11.41638117573292300000	      1.10515065386115400000	    -14.46122615559160700000	     -9.19832065204579230000	     -0.00000000000000326542	     -0.00000000000001177475	     -0.43649176549512664000	     -4.02008629143469150000	      4.82109794969615190000	    -11.90085360190573000000	    -16.21967911689465000000	      3.86288660596317920000	    102.57257440686242000000	     79.11929917032897200000	      0.00000000000001853563	      0.00000000000000741637	    -43.77497946260606200000	    -39.21798657867501700000	     15.62909529907065400000	    111.75943886693412000000	     64.85326569402380400000	     -0.00000000000000015553	     -0.00000000000001806897
      1.82300000000000000000	     -7.02914758200127120000	      5.15643748871707610000	      6.85279147716885180000	      0.79143000338820058000	      1.01230243707842260000	     -0.31440358209378400000	     -7.50297239297577700000	     -1.79662921705012810000	    -13.60094413971514400000	    -64.05161718109262400000	    -20.14532919215458400000	     -0.00000000000007943358	      0.00000000000009556327	     29.20720493482008400000	     11.43693250547962000000	      0.95558128213740379000	    -14.38468672588167300000	     -9.27408504309560830000	     -0.00000000000000329070	     -0.00000000000001183622	     -0.57234409572220779000	     -4.07159758442144600000	      4.75748929424396930000	    -11.95768224122986800000	    -16.20962968617751400000	      3.91268730632399550000	    102.40704689471960000000	     78.96327309942445500000	      0.00000000000001859616	      0.00000000000000745701	    -43.58079683988910300000	    -39.23658405412333400000	     15.68464302391875300000	    111.78078261790469000000	     64.88395183715387300000	     -0.00000000000000016187	     -0.00000000000001817773
      1.82400000000000010000	     -6.92015584920186020000	      5.19492806483077360000	      6.86927344253396740000	      0.79136000054127786000	      1.01189625476674050000	     -0.31440170627159075000	     -7.42677633897920050000	     -1.90254110669667750000	    -13.66864068415834600000	    -64.67700818063856600000	    -19.95540043491655500000	     -0.00000000000007980177	      0.00000000000009597160	     29.01774954151100900000	     11.45600821060306300000	      0.80060405414218205000	    -14.32696736502699200000	     -9.34415586877183380000	     -0.00000000000000331503	     -0.00000000000001189776	     -0.70854125149572733000	     -4.12303964489798780000	      4.69368044618142210000	    -12.01366743615079400000	    -16.19975041506399200000	      3.96338388013415970000	    102.23961038344913000000	     78.80491215915655800000	      0.00000000000001865639	      0.00000000000000749763	    -43.38376325228271200000	    -39.25563759357733300000	     15.74073525689251700000	    111.80096890190765000000	     64.91756466100326900000	     -0.00000000000000016822	     -0.00000000000001828606
      1.82500000000000000000	     -6.81148268581212780000	      5.23312133933912450000	      6.88489422311613720000	      0.79128540226052912000	      1.01147981487033370000	     -0.31439688265736371000	     -7.34775756662065850000	     -2.00840081807923540000	    -13.73325997187468600000	    -65.30307989388794000000	    -19.76485283548954200000	     -0.00000000000008017095	      0.00000000000009637982	     28.83368932498408900000	     11.47367914661935400000	      0.64048468038728346000	    -14.28805644161849000000	     -9.40963600431410540000	     -0.00000000000000334047	     -0.00000000000001195720	     -0.84466370379451139000	     -4.17435139502112750000	      4.62938341212251100000	    -12.06878546486165000000	    -16.19004852527391900000	      4.01498136268616700000	    102.07025868246701000000	     78.64454860194426500000	      0.00000000000001871636	      0.00000000000000753856	    -43.18408717358501300000	    -39.27509209632262400000	     15.79731765787771800000	    111.82003688400390000000	     64.95416131606019400000	     -0.00000000000000017533	     -0.00000000000001839429
